<?xml version="1.0" encoding="iso-8859-1"?>
<!-- Generator: Adobe Illustrator 21.0.0, SVG Export Plug-In . SVG Version: 6.00 Build 0)  -->
<svg version="1.1" id="Capa_1" xmlns="http://www.w3.org/2000/svg" xmlns:xlink="http://www.w3.org/1999/xlink" x="0px" y="0px"
	 viewBox="0 0 148.11 185.98" style="enable-background:new 0 0 148.11 185.98;" xml:space="preserve">
<g>
	<path style="fill-rule:evenodd;clip-rule:evenodd;" d="M31.67,148.42c-0.36,2.04-2.1,5.64-3,7.57c-1.47,3.16-4.17,8.19-6.35,10.77
		l-1.17,1.45c-0.31,0.32-0.41,0.44-0.68,0.74c-0.63,0.73-4.89,5-6.62,2.68c-2.74-3.67,4.03-12.59,5.54-14.22l1.25-1.37
		c0.46-0.51,0.87-0.82,1.34-1.29l2.89-2.44C26.13,151.36,29.8,148.96,31.67,148.42L31.67,148.42L31.67,148.42L31.67,148.42z
		 M94.14,111.41c-0.06-1.35,1.31-6.63,1.7-8.21c1.07-4.34,2.67-10.92,5.43-14.2c0.46-0.54,0.61-0.89,1.2-1.32
		c0.44-0.32,0.82-0.67,1.45-0.96c1.57-0.73,2.47,0.4,2.96,1.49c1.91,4.28-0.67,12.32-2.09,16.29c-1.2,3.34-3.13,7.1-6.85,7.88
		C95.72,112.83,95.21,111.92,94.14,111.41L94.14,111.41L94.14,111.41L94.14,111.41z M74.89,89.69c1.52-0.37,2.76,0.55,2.75,2.02
		c-0.02,2.23-2.21,9.35-2.93,11.46c-0.84,2.49-3.69,12.91-7.55,11.44C60.74,112.19,65.45,92,74.89,89.69L74.89,89.69L74.89,89.69
		L74.89,89.69z M48.65,89.76c-0.64,1.75-1.26,3.71-1.81,5.5c-1.11,3.69-2.49,7.33-3.83,10.77c-1.7,4.36-3.65,8.94-7.43,10.91
		c-0.97,0.51-1.96,0.53-2.68-0.12c-1.37-1.25-0.85-4.11-0.43-6.03c0.84-3.77,2.23-7.57,3.35-11.26c0.44-1.43,1.4-4.48,1.11-5.97
		c-0.36-1.91-1.72-3.24-3.64-3.62c-2.92-0.57-3.86,0.18-3.86,3.08c0,2.73-0.25,3.8-1.15,6.12c-2.01,5.17-6.57,17.52-4.98,23.47
		c0.97,3.64,4.38,6.39,9.02,4.77c2.43-0.85,4.66-2.69,6.43-4.56c0.3-0.32,1.36-1.51,1.54-1.97c-1.03,3.17-2.26,6.69-3.34,10.08
		c-0.28,0.86-0.53,1.71-0.83,2.55c-0.93,2.61-0.52,3.45-2.5,4.29c-0.71,0.3-1.66,0.61-2.38,0.87c-3.68,1.35-11.06,6.03-13.98,8.91
		c-0.16,0.16-0.24,0.21-0.42,0.34c-0.57,0.44-1.13,1.09-1.65,1.62l-3.2,3.55c-1.04,1.23-1.91,2.6-2.73,4.03
		c-3.23,5.59-6.66,14.71-2.03,20.28c0.31,0.37,0.44,0.62,0.79,0.95c0.32,0.3,0.6,0.46,0.91,0.72c0.63,0.53,1.2,0.9,2.11,1.25
		c4.87,1.87,10.02-0.31,13.73-3.42l5.6-6.16c4.45-5.59,7.47-12.76,10.03-20.15c0.29-0.83,1.45-4.68,1.81-4.97
		c1.01-0.82,34.63-7.59,39.21-7.79c-0.19,1.5-0.35,3.36,0.4,4.54c0.67,1.04,1.9,1.67,3.49,0.9c2.2-1.06,2.86-3.52,3.6-6.51
		c3.83-0.59,7.73-1.03,11.56-1.55c3.83-0.52,7.69-1.07,11.53-1.54c2.85-0.35,17.65-1.52,19.91-2.97c2.18-1.4,1.55-5.16-0.44-6.38
		c-1.46-0.9-3.99-0.81-5.81-0.77c-3.97,0.09-8.09,0.68-12.03,1.09c-7.79,0.82-15.59,1.94-23.33,2.97l1.17-8.33
		c0.08-0.49,0.22-2.23,0.57-2.61c0.4,0.7,2.2,2.03,3.25,2.52c4.06,1.89,8.57,1.03,11.38-2.4c3.72-4.54,5.92-10.2,7.43-16.97
		c1.12-5.03,2.08-15.27-1.2-19.59c-1.71-2.25-4.95-3.1-8.44-1.62c-0.73,0.31-1.31,0.74-1.81,1.14c-0.78,0.63-2.1,2.13-2.72,2.94
		c-0.17,0.23-0.39,0.52-0.59,0.83c-0.2,0.3-0.32,0.64-0.6,0.88c0.21-2.4,1.36-3.6-1.5-4.4c-1.83-0.51-3.84-1.17-4.77,0.89
		c-0.58,1.3-3.95,19.74-4.32,21.61c-0.29,1.52-1.02,6.88-1.81,8.01c-0.36,0.51-1.1,1.11-1.72,1.45c-2.39,1.32-2.94,1.05-2.94-2
		c0-1.96,0.33-3.91,0.7-5.79c1.05-5.34,2.33-10.69,3.51-16.01c0.33-1.5,1.1-3.93,0.45-5.36c-0.79-1.75-5.33-2.99-6.55-0.66
		c-0.29,0.56-0.49,1.94-0.91,2.33c-0.23-0.21-0.14-0.17-0.34-0.4c-1.68-1.9-5.61-2.38-8.27-1.3c-1.91,0.77-3.15,2.12-4.56,3.49
		c-4,3.92-7.34,11.92-8.6,17.87c-1.28,6.03-2.76,19.46,6.31,20.66c1.74,0.23,3.47-0.01,4.87-0.75c0.75-0.4,1.21-0.72,1.73-1.21
		c1-0.94,1.84-1.89,2.55-3.12l1.04-1.85c0.13,1.3,0.75,2.59,1.42,3.29c0.05,0.05,0.12,0.11,0.17,0.16c1.93,1.89,4.4,1.36,6.71,0.41
		c1.04-0.43,2.24-1.4,2.92-1.65c-0.2,1.07-1.44,7.98-1.75,8.42c-0.26,0.19-18.23,2.78-19.09,2.92c-3.18,0.51-6.24,1.02-9.39,1.62
		c-1.53,0.29-3.07,0.55-4.6,0.84c-1.53,0.29-3.07,0.66-4.53,0.93c0.85-3.73,2.18-7.75,3.22-11.51l6.42-22.79
		c1.07-3.8,2.23-7.62,3.19-11.42c0.47-1.87,1.46-4.72-0.99-5.11C53.71,83.38,49.85,86.48,48.65,89.76L48.65,89.76L48.65,89.76
		L48.65,89.76z"/>
	<path style="fill-rule:evenodd;clip-rule:evenodd;" d="M126.5,92.84c0.42-2.23,2.1-5.57,3.17-7.26c0.97-1.52,3.7-5.57,5.69-3.52
		c1.94,2-1.07,6.18-2.1,7.1C131.62,90.61,129.48,92.24,126.5,92.84L126.5,92.84L126.5,92.84L126.5,92.84z M142.93,83.22
		c1.64-9.36-8.23-11.02-13.36-7.67c-1.62,1.06-3.51,2.85-4.79,4.36c-1.92,2.28-4.41,6.91-5.62,9.63
		c-2.54,5.73-4.26,13.89-3.08,20.73c0.39,2.24,1.43,4.74,3.02,6.11c0.48,0.42,1.09,0.91,1.8,1.24c3.29,1.56,6.78,0.62,9.83-0.71
		c2.54-1.11,3.75-2,5.62-3.53l2.41-2.17c0.97-1.11,1.32-1.25,2.21-2.36c1.2-1.49,1.02-2.69,0.24-4.68c-0.5-1.26-1.35-3.38-3.01-2.24
		c-0.72,0.49-2.21,2.64-4.64,4.52c-0.6,0.47-1.07,0.84-1.77,1.29c-2.64,1.68-6.73,3.19-7.77-1.19c-0.42-1.79-0.02-3.56,0.54-5.17
		c0.48-1.34,0.19-1.18,1.66-1.4c4.27-0.64,9.88-3.77,12.43-7.39C140.61,89.85,142.26,87.09,142.93,83.22L142.93,83.22L142.93,83.22
		L142.93,83.22z"/>
	<path d="M83.84,5C67.12,5,53.56,18.56,53.56,35.28c0,7.98,3.09,15.24,8.14,20.64l-0.71,12.83c-0.06,1.17,1.24,1.9,2.2,1.24
		l9.53-6.55c3.44,1.36,7.2,2.12,11.12,2.12c16.72,0,30.28-13.56,30.28-30.28C114.12,18.55,100.57,5,83.84,5L83.84,5L83.84,5L83.84,5
		z M86.04,47.32L86.04,47.32c-0.77,1.31-1.84,2.33-3.16,3.01c-1.31,0.68-2.9,1.02-4.73,1.02c-2.86,0-5.17-0.85-6.89-2.54
		s-2.62-3.99-2.68-6.84c0-0.02-0.05-0.59,0.37-1.07c0.33-0.38,0.82-0.58,1.47-0.59c0.76-0.01,1.35,0.15,1.72,0.52
		c0.28,0.28,0.38,0.63,0.37,0.86c0.13,1.25,0.43,2.28,0.89,2.99c0.45,0.7,1.12,1.27,1.97,1.71c0.87,0.44,1.87,0.66,2.96,0.66
		c1.57,0,2.79-0.36,3.62-1.08c0.82-0.7,1.22-1.59,1.22-2.73c0-0.66-0.14-1.21-0.43-1.69c-0.29-0.47-0.73-0.87-1.33-1.18
		c-0.66-0.35-2.14-0.85-4.41-1.5c-2.14-0.62-3.64-1.23-4.58-1.88c-0.95-0.66-1.7-1.5-2.23-2.51c-0.53-1.01-0.8-2.16-0.8-3.42
		c0-2.26,0.77-4.14,2.28-5.58c1.5-1.44,3.54-2.17,6.06-2.17c1.71,0,3.24,0.34,4.54,1c1.32,0.67,2.36,1.66,3.09,2.92
		c0.72,1.25,1.11,2.73,1.16,4.4c0,0.05,0.03,0.66-0.42,1.16c-0.23,0.24-0.65,0.54-1.38,0.57c-0.76,0.03-1.35-0.15-1.74-0.52
		c-0.41-0.39-0.45-0.84-0.45-0.93c-0.13-1.48-0.59-2.61-1.36-3.32c-0.77-0.71-1.9-1.06-3.35-1.06c-1.48,0-2.61,0.31-3.36,0.93
		c-0.72,0.6-1.07,1.35-1.07,2.3c0,0.88,0.24,1.53,0.75,1.99c0.39,0.35,1.39,0.91,4,1.62c2.21,0.6,3.74,1.1,4.65,1.55l0.01,0
		c1.43,0.71,2.53,1.66,3.26,2.83c0.74,1.17,1.12,2.58,1.12,4.18C87.2,44.54,86.81,46.01,86.04,47.32L86.04,47.32L86.04,47.32
		L86.04,47.32z M104.07,27.82L104.07,27.82l-11.71,21.3c-0.37,0.68-1.09,1.1-1.86,1.1c-0.35,0-0.71-0.09-1.02-0.26
		c-1.02-0.56-1.4-1.85-0.84-2.88l11.71-21.3c0.56-1.02,1.85-1.4,2.88-0.84h0C104.26,25.51,104.63,26.8,104.07,27.82L104.07,27.82
		L104.07,27.82z"/>
</g>
</svg>
