<?xml version="1.0" standalone="no"?>
<!DOCTYPE svg PUBLIC "-//W3C//DTD SVG 20010904//EN"
 "http://www.w3.org/TR/2001/REC-SVG-20010904/DTD/svg10.dtd">
<svg version="1.0" xmlns="http://www.w3.org/2000/svg"
 width="225.000000pt" height="225.000000pt" viewBox="0 0 225.000000 225.000000"
 preserveAspectRatio="xMidYMid meet">

<g transform="translate(0.000000,225.000000) scale(0.100000,-0.100000)"
fill="#000000" stroke="none">
<path d="M730 1790 l0 -70 35 0 c19 0 35 5 35 10 0 6 -9 10 -20 10 -18 0 -20
7 -20 60 0 47 -3 60 -15 60 -12 0 -15 -14 -15 -70z"/>
<path d="M820 1790 c0 -40 4 -70 10 -70 6 0 10 30 10 70 0 40 -4 70 -10 70 -6
0 -10 -30 -10 -70z"/>
<path d="M870 1790 c0 -68 1 -70 26 -70 49 0 63 15 62 71 -2 54 -15 69 -62 69
-25 0 -26 -2 -26 -70z m58 27 c2 -10 -3 -17 -12 -17 -10 0 -16 9 -16 21 0 24
23 21 28 -4z m12 -51 c0 -8 -7 -17 -16 -20 -23 -9 -24 -8 -24 14 0 13 7 20 20
20 11 0 20 -6 20 -14z"/>
<path d="M982 1793 c2 -42 8 -68 16 -71 9 -3 12 13 12 57 0 65 4 70 36 46 19
-15 19 -16 -3 -31 l-23 -16 21 -29 c25 -36 43 -38 27 -4 -9 19 -9 28 0 37 18
18 14 56 -7 68 -11 5 -34 10 -51 10 l-31 0 3 -67z"/>
<path d="M1122 1843 c-35 -30 -38 -68 -8 -97 48 -49 116 -20 116 48 0 58 -64
86 -108 49z m70 -20 c10 -9 18 -23 18 -31 0 -19 -29 -52 -46 -52 -19 0 -44 29
-44 50 0 20 25 50 42 50 6 0 20 -7 30 -17z"/>
<path d="M1310 1789 l0 -72 40 6 c55 7 70 22 70 68 0 45 -27 69 -77 69 l-33 0
0 -71z m68 35 c28 -19 28 -49 0 -68 -34 -24 -38 -20 -38 34 0 54 4 58 38 34z"/>
<path d="M1450 1790 l0 -70 35 0 c39 0 48 17 13 22 -34 5 -37 38 -4 38 14 0
26 5 26 10 0 6 -12 10 -26 10 -33 0 -30 33 4 38 35 5 26 22 -13 22 l-35 0 0
-70z"/>
<path d="M350 1570 c0 -40 4 -70 10 -70 6 0 10 27 10 60 0 33 4 60 9 60 37 0
56 -35 26 -46 -20 -8 -19 -24 5 -54 22 -29 37 -22 20 10 -9 16 -9 25 -1 33 15
15 14 50 -1 65 -7 7 -27 12 -45 12 l-33 0 0 -70z"/>
<path d="M464 1626 c-3 -7 -4 -38 -2 -67 l3 -54 38 -3 c28 -2 37 0 37 12 0 10
-9 16 -25 16 -16 0 -25 6 -25 15 0 9 9 15 25 15 14 0 25 5 25 10 0 6 -11 10
-25 10 -18 0 -25 5 -25 20 0 15 7 20 25 20 14 0 25 5 25 10 0 15 -70 12 -76
-4z"/>
<path d="M582 1624 c-47 -32 -16 -124 42 -124 27 0 75 34 64 45 -8 8 -22 3
-50 -17 -14 -10 -21 -9 -37 6 -25 23 -27 49 -5 70 19 20 38 20 58 1 16 -17 36
-20 36 -6 0 15 -42 41 -65 41 -11 0 -31 -7 -43 -16z"/>
<path d="M710 1570 l0 -70 35 0 c24 0 35 5 35 15 0 8 -9 15 -20 15 -18 0 -20
7 -20 55 0 42 -3 55 -15 55 -12 0 -15 -14 -15 -70z"/>
<path d="M816 1574 c-26 -65 -27 -96 -2 -61 17 22 55 22 72 0 7 -10 16 -15 20
-11 9 10 -37 130 -52 135 -7 2 -24 -26 -38 -63z m50 -21 c-2 -3 -11 -3 -19 -1
-11 2 -12 9 -5 28 l10 25 9 -24 c5 -13 7 -26 5 -28z"/>
<path d="M932 1573 c3 -77 21 -92 26 -23 l4 45 17 -45 c9 -25 21 -45 25 -45 5
0 17 23 27 50 l17 50 1 -52 c1 -29 6 -53 11 -53 6 0 10 30 10 71 0 60 -2 70
-17 67 -9 -2 -23 -22 -32 -48 l-15 -45 -20 48 c-13 32 -26 47 -38 47 -17 0
-19 -7 -16 -67z"/>
<path d="M1119 1573 c-16 -40 -22 -70 -16 -72 5 -2 14 4 19 13 12 21 57 21 74
-1 7 -10 15 -15 19 -12 9 10 -45 139 -59 139 -6 0 -23 -30 -37 -67z m51 -10
c0 -7 -7 -13 -15 -13 -16 0 -19 9 -9 35 5 13 8 14 15 3 5 -7 9 -19 9 -25z"/>
<path d="M1241 1614 c-12 -15 -21 -35 -21 -46 0 -22 43 -68 64 -68 23 0 64 21
70 36 7 18 -14 17 -38 -1 -25 -19 -31 -19 -50 1 -41 41 10 109 52 71 23 -21
32 -21 32 -2 0 8 -9 19 -19 25 -34 18 -68 12 -90 -16z"/>
<path d="M1380 1569 c0 -52 3 -70 13 -67 7 3 13 29 15 71 2 55 0 67 -13 67
-12 0 -15 -14 -15 -71z"/>
<path d="M1452 1624 c-47 -33 -16 -124 43 -124 30 0 75 41 75 68 0 11 -9 31
-21 46 -24 30 -63 34 -97 10z m69 -14 c23 -13 25 -53 3 -74 -19 -20 -24 -20
-52 0 -26 18 -28 41 -5 66 19 21 27 22 54 8z"/>
<path d="M1590 1570 c0 -78 17 -96 22 -24 l3 46 32 -46 c18 -25 37 -46 43 -46
6 0 10 29 10 70 0 54 -3 70 -14 70 -10 0 -16 -13 -18 -42 l-3 -42 -28 42 c-15
23 -32 42 -37 42 -6 0 -10 -31 -10 -70z"/>
<path d="M1730 1570 l0 -70 35 0 c24 0 35 5 35 15 0 9 -9 15 -25 15 -16 0 -25
6 -25 15 0 9 9 15 25 15 14 0 25 5 25 10 0 6 -11 10 -25 10 -18 0 -25 5 -25
20 0 15 7 20 25 20 14 0 25 5 25 10 0 6 -16 10 -35 10 l-35 0 0 -70z"/>
<path d="M1832 1628 c-21 -21 -13 -47 18 -63 32 -16 37 -29 18 -41 -6 -4 -17
1 -24 11 -17 23 -32 11 -18 -13 15 -23 48 -26 68 -6 22 21 17 45 -12 60 -13 6
-28 16 -34 22 -15 15 10 26 28 11 17 -14 29 -6 21 16 -7 18 -48 20 -65 3z"/>
<path d="M1500 1245 c-137 -31 -323 -152 -364 -239 -13 -28 -16 -70 -16 -235
0 -111 2 -201 4 -201 3 0 64 36 136 81 290 177 457 240 669 252 l43 2 -78 85
c-237 259 -241 262 -286 266 -24 2 -72 -3 -108 -11z"/>
<path d="M540 1105 c-35 -11 -80 -47 -205 -165 -88 -83 -163 -157 -167 -165
-6 -10 23 -14 150 -19 338 -14 502 -42 675 -116 l87 -38 0 192 c0 152 -3 196
-15 212 -51 73 -402 139 -525 99z"/>
<path d="M1741 819 c-115 -22 -248 -79 -354 -151 -60 -41 -69 -56 -24 -39 74
29 223 44 467 50 l255 6 -30 20 c-25 17 -46 20 -150 20 -66 0 -160 -4 -210 -8
-82 -7 -87 -6 -59 6 57 27 178 49 292 54 61 3 112 10 112 14 0 5 -13 15 -30
24 -32 17 -192 19 -269 4z"/>
<path d="M465 665 c243 -23 300 -27 294 -21 -14 14 -214 36 -319 35 l-115 -1
140 -13z"/>
<path d="M220 614 c-67 -8 -78 -14 -84 -40 -4 -14 -4 -35 0 -46 6 -21 9 -21
338 -14 353 7 482 14 469 26 -11 10 -116 35 -228 55 -87 16 -420 28 -495 19z"/>
<path d="M1730 613 c-75 -8 -249 -44 -300 -62 l-55 -20 358 0 357 -1 0 45 0
45 -162 -2 c-90 0 -179 -3 -198 -5z"/>
<path d="M2166 475 c-13 -34 -51 -35 -444 -16 -360 17 -467 17 -544 -4 -14 -4
-76 1 -138 10 -101 16 -145 16 -500 6 -213 -7 -408 -10 -432 -6 -43 6 -44 6
-76 -39 -18 -24 -29 -46 -25 -49 5 -2 109 2 233 9 330 18 1006 39 1225 38 105
-1 312 -11 462 -23 149 -11 283 -21 297 -21 l25 0 -32 55 c-34 58 -41 64 -51
40z"/>
</g>
</svg>
